<?xml version="1.0" standalone="no"?>
<!DOCTYPE svg PUBLIC "-//W3C//DTD SVG 20010904//EN"
 "http://www.w3.org/TR/2001/REC-SVG-20010904/DTD/svg10.dtd">
<svg version="1.0" xmlns="http://www.w3.org/2000/svg"
 width="580.000000pt" height="580.000000pt" viewBox="0 0 580.000000 580.000000"
 preserveAspectRatio="xMidYMid meet">
<metadata>
Created by potrace 1.11, written by Peter Selinger 2001-2013
</metadata>
<g transform="translate(0.000000,580.000000) scale(0.100000,-0.100000)"
fill="#000000" stroke="none">
<path d="M2908 5726 c-1 -2 -61 -6 -133 -10 -71 -3 -139 -8 -150 -10 -11 -2
-45 -7 -75 -10 -211 -24 -451 -88 -695 -186 -216 -86 -529 -274 -715 -430
-448 -374 -765 -863 -918 -1415 -17 -60 -34 -127 -38 -148 -6 -38 -6 -38 15
-25 11 7 21 16 21 20 0 3 28 24 63 46 225 142 538 142 744 1 60 -42 107 -91
153 -161 l37 -57 32 49 c47 72 150 161 234 203 218 108 508 95 704 -32 138
-89 219 -211 264 -396 21 -87 22 -110 23 -738 0 -356 -1 -653 -4 -660 -4 -10
-57 -13 -212 -14 -115 0 -208 2 -209 6 -1 3 -2 274 -3 601 -2 327 -6 613 -10
634 -19 101 -86 195 -167 237 -61 31 -168 45 -244 32 -160 -28 -267 -129 -311
-295 -11 -42 -13 -172 -14 -627 0 -316 -3 -577 -6 -580 -7 -8 -424 -9 -425 -1
-1 3 -2 271 -4 595 -1 325 -5 611 -9 637 -17 111 -96 211 -195 249 -152 57
-335 20 -434 -90 -84 -93 -109 -184 -102 -376 3 -77 7 -151 9 -165 3 -14 12
-74 21 -135 58 -390 226 -811 453 -1140 140 -202 366 -449 543 -592 439 -355
962 -568 1524 -620 148 -13 502 -7 600 11 11 2 43 7 70 10 28 4 64 10 80 12
54 9 239 54 310 76 39 12 75 22 80 24 45 9 238 92 366 156 368 185 683 441
945 769 53 66 137 183 169 236 6 9 24 40 41 67 35 57 114 210 114 220 0 4 -5
4 -10 1 -21 -13 -237 -6 -315 10 -346 70 -602 298 -709 631 -42 130 -53 218
-50 376 7 330 153 613 410 795 59 42 192 102 275 125 118 32 355 32 474 -1
107 -30 115 -31 115 -22 0 5 -14 55 -31 112 -41 140 -110 310 -181 449 -64
124 -65 126 -120 213 -21 32 -38 60 -38 63 0 12 -184 254 -235 309 -296 318
-546 508 -890 677 -77 37 -153 72 -170 78 -16 5 -61 21 -100 36 -38 14 -124
42 -190 60 -100 29 -159 42 -305 69 -8 1 -40 6 -70 10 -30 4 -64 9 -75 11 -11
2 -83 6 -160 10 -77 3 -145 7 -152 9 -6 2 -13 2 -15 1z m284 -1198 c29 -12 67
-41 93 -70 158 -176 50 -454 -186 -475 -119 -11 -238 57 -285 164 -108 243
134 486 378 381z m923 -1393 l0 -1380 -220 0 -220 0 -1 1381 0 1382 220 -2
221 -1 0 -1380z m-830 476 c7 -1 9 -313 8 -918 0 -505 -2 -923 -2 -929 -1 -11
-430 -16 -432 -5 -3 14 -5 1837 -2 1846 2 8 355 13 428 6z"/>
<path d="M5144 3281 c-126 -35 -223 -117 -280 -236 -18 -38 -35 -90 -36 -114
l-3 -43 445 0 c245 1 449 1 453 1 8 1 4 55 -9 106 -21 88 -101 195 -180 241
-38 23 -63 32 -138 51 -51 14 -193 10 -252 -6z"/>
<path d="M4812 2551 c-9 -25 16 -130 48 -194 61 -124 155 -205 291 -251 64
-22 88 -24 184 -22 119 3 179 19 253 64 32 20 45 36 53 64 15 57 46 207 54
263 3 28 9 59 11 70 5 20 0 20 -442 20 -369 0 -447 -2 -452 -14z"/>
</g>
</svg>
